<svg width="51" height="45" viewBox="0 0 51 45" fill="none" xmlns="http://www.w3.org/2000/svg">
<g clip-path="url(#clip0_1992_60)">
<path d="M34.1045 23.8493C31.8096 20.6904 27.9011 18.8041 23.649 18.8041C19.3973 18.8041 15.4884 20.6904 13.1939 23.8493L7.66402 31.4611C6.74652 32.7242 6.32318 34.1829 6.43952 35.6795C6.55586 37.1764 7.20138 38.5703 8.30603 39.7111C9.41146 40.8516 10.8721 41.631 12.5301 41.9654C14.188 42.2994 15.8876 42.157 17.4448 41.553L17.5464 41.5132C21.465 40.0229 25.9439 40.0362 29.8528 41.553C30.8609 41.9441 31.929 42.1418 33.0068 42.1418C33.5928 42.1418 34.1823 42.0831 34.7663 41.9657C36.4243 41.6317 37.885 40.8523 38.9908 39.7118C40.0958 38.5713 40.7417 37.1771 40.8585 35.6802C40.9752 34.1829 40.5518 32.7242 39.6343 31.4607L34.1045 23.8493ZM36.7188 37.9973C35.3122 39.4481 33.0368 39.9068 31.0563 39.1385C28.7022 38.2249 26.1754 37.7683 23.6478 37.7683C21.1226 37.7683 18.5961 38.2245 16.2437 39.1371L16.1767 39.1632C14.2114 39.8965 11.9694 39.432 10.5784 37.9973C9.17333 36.546 9.01341 34.4916 10.1807 32.8845L15.711 25.2727C17.4534 22.8742 20.4206 21.4422 23.649 21.4422C26.8773 21.4422 29.845 22.8742 31.5878 25.2727L37.1173 32.8841C38.285 34.4919 38.1246 36.5467 36.7188 37.9973Z" fill="#F2BE5E"/>
<path d="M9.1536 23.8393C10.7987 23.2817 12.0485 22.112 12.673 20.5454C13.2668 19.0547 13.2181 17.3718 12.5353 15.8062C11.852 14.2417 10.6092 12.9645 9.03609 12.2096C7.38281 11.4168 5.56688 11.2877 3.9245 11.8463C0.620266 12.9673 -0.896054 16.5701 0.54478 19.8794C1.69574 22.5134 4.38013 24.1761 7.0941 24.1761C7.78708 24.1761 8.48201 24.0676 9.1536 23.8393ZM3.33462 18.9318C2.48561 16.9817 3.23151 14.9074 4.99841 14.3079C5.31747 14.1995 5.65482 14.1456 5.99917 14.1456C6.53068 14.1456 7.0797 14.2736 7.6081 14.5273C8.55828 14.9829 9.31741 15.7739 9.74542 16.7541C10.173 17.735 10.2112 18.7705 9.85242 19.6703C9.52363 20.495 8.89446 21.1013 8.08124 21.377L8.07968 21.3777C6.31512 21.9778 4.18636 20.8802 3.33462 18.9318Z" fill="#F2BE5E"/>
<path d="M19.8834 17.8758C24.014 17.8758 27.3747 14.4975 27.3747 10.345C27.3747 6.19148 24.014 2.8125 19.8834 2.8125C15.7531 2.8125 12.3928 6.19148 12.3928 10.345C12.3928 14.4975 15.7531 17.8758 19.8834 17.8758ZM19.8834 5.45025C22.3654 5.45025 24.3852 7.64614 24.3852 10.345C24.3852 13.0428 22.3654 15.238 19.8834 15.238C17.4013 15.238 15.3823 13.0428 15.3823 10.345C15.3823 7.64614 17.4013 5.45025 19.8834 5.45025Z" fill="#F2BE5E"/>
<path d="M32.8209 19.726H32.8213C33.4567 19.9121 34.1049 20.001 34.7504 20.001C37.7628 20.001 40.6986 18.0664 41.8188 15.0932C42.4639 13.3818 42.4215 11.5721 41.6993 9.99798C40.9437 8.35038 39.5433 7.15424 37.7558 6.62964C35.9683 6.10573 34.0341 6.32409 32.3108 7.24488C30.6645 8.12481 29.403 9.55166 28.7591 11.2631C27.3992 14.8735 29.2213 18.67 32.8209 19.726ZM31.596 12.095C32.0166 10.9775 32.8205 10.0567 33.8598 9.5012C34.8212 8.98724 35.8702 8.85644 36.813 9.13281C37.7554 9.40953 38.5064 10.068 38.9282 10.9874C39.3838 11.981 39.4033 13.1435 38.9819 14.261C38.1418 16.4912 35.801 17.8199 33.7641 17.2229C31.7287 16.6255 30.7559 14.3252 31.596 12.095Z" fill="#F2BE5E"/>
<path d="M48.597 18.8471L48.5958 18.846C45.7472 16.9894 41.4869 17.7941 39.0982 20.6409C36.7119 23.4891 37.085 27.3182 39.9294 29.1763C40.9667 29.8543 42.1924 30.1784 43.4468 30.1784C45.6332 30.1784 47.9079 29.1938 49.4281 27.3831C51.8144 24.5349 51.4417 20.7058 48.597 18.8471ZM47.0254 25.8138C45.6149 27.4936 43.2301 28.0509 41.7083 27.0562C40.1877 26.063 40.0951 23.8884 41.5017 22.2096C42.4367 21.0951 43.8025 20.4751 45.0612 20.4751C45.6978 20.4751 46.3071 20.6337 46.8192 20.9678C48.3386 21.962 48.4308 24.1359 47.0254 25.8138Z" fill="#F2BE5E"/>
</g>
<defs>
<clipPath id="clip0_1992_60">
<rect width="51" height="45" fill="white"/>
</clipPath>
</defs>
</svg>
